<svg version="1.2" xmlns="http://www.w3.org/2000/svg" viewBox="0 0 400 400" width="400" height="400">
	<title>New Project</title>
	<style>
		.s0 { fill: #000000 } 
	</style>
	<path id="Arctic monkeys" fill-rule="evenodd" class="s0" d="m94 282h2.4l10.4-29.6h6.8l10.4 29.6h2.4v3.2h-14.4v-3.2h3.8l-2.2-6.8h-10.8l-2.2 6.8h3.7v3.2h-10.3zm9.8-10.1h8.9l-4.4-13.6h-0.2zm24.9 10.1h2.8v-16.6l-2.8-0.6v-2.8l10.3-2.1v4.6h0.2c0.9-2.6 2.9-4.6 6.1-4.6 3.1 0 5 1.8 5 4.7 0 2.6-1.4 4.2-4 4.2-2.3 0-3.6-1.5-3.6-3.2 0-0.7 0.4-1.4 0.8-1.5l-0.1-0.3c-0.1-0.1-0.2-0.1-0.3-0.1-1.9 0-4 2.5-4 4.5v13.8h3.8v3.2h-14.2zm23.9-9.2c0-8.3 5.8-12.9 13.2-12.9 5.9 0 9.2 2.7 9.2 6.4 0 2.4-1.5 3.9-3.8 3.9-2.4 0-3.8-1.4-3.8-3.3 0-1.7 1-2.8 2.1-3.3v-0.3c-0.7-0.1-1.4-0.3-2.8-0.3-3.8 0-6 2.4-6 6.9v5c0 4 2 6.1 5.4 6.1 3.5 0 5.6-1.9 6.5-4.1l2.7 1.6c-1.1 3.2-4.1 7.2-10.3 7.2-8.1 0-12.4-5.6-12.4-12.9zm28.3 7.9v-16.8h-3.4v-3.4h1.4c2 0 2.9-1 3.8-2.8l2-4.1h3.8v6.9h5.4v3.4h-5.4v18h5.4v2.9c-1 0.4-3.9 0.8-7.3 0.8-3.9 0-5.7-1.7-5.7-4.9zm18.2-27.4v-0.2c0-2.5 1.7-4.1 4.4-4.1 2.8 0 4.5 1.6 4.5 4.1v0.2c0 2.6-1.7 4.2-4.5 4.2-2.7 0-4.4-1.6-4.4-4.2zm-2.2 28.7h2.8v-16.6l-2.8-0.6v-2.8l10.4-2.1v22.1h2.9v3.2h-13.3zm16.3-9.2c0-8.3 5.7-12.9 13.1-12.9 5.9 0 9.2 2.7 9.2 6.4 0 2.4-1.5 3.9-3.8 3.9-2.4 0-3.8-1.4-3.8-3.3 0-1.7 1.1-2.8 2.1-3.3v-0.3c-0.6-0.1-1.4-0.3-2.7-0.3-3.9 0-6.1 2.4-6.1 6.9v5c0 4 2 6.1 5.5 6.1 3.4 0 5.5-1.9 6.4-4.1l2.8 1.6c-1.2 3.2-4.2 7.2-10.4 7.2-8.1 0-12.3-5.6-12.3-12.9zm-118.1 66.2h2.8v-16.6l-2.8-0.6v-2.8l10.3-2.1v4.7h0.2c0.9-2.5 2.9-4.7 7-4.7 4.2 0 6.6 1.6 7.6 4.7h0.1c1.1-2.5 3.5-4.7 7.5-4.7 5.9 0 8.1 3 8.1 9.1v13h2.9v3.1h-12.9v-3.1h2.4v-12.7c0-3.2-1-4.5-3.4-4.5-2.2 0-4.2 1.2-4.2 3.6v13.6h2.4v3.1h-12.4v-3.1h2.4v-12.7c0-3.2-1-4.5-3.4-4.5-2.2 0-4.2 1.2-4.2 3.6v13.6h2.4v3.1h-12.8zm46.7-9.1c0-8.2 4.9-12.9 12.2-12.9 7.3 0 12.2 4.7 12.2 12.9 0 8.2-4.9 12.9-12.2 12.9-7.3 0-12.2-4.7-12.2-12.9zm16.4 4.5v-9c0-3.3-1.5-4.9-4.2-4.9-2.7 0-4.2 1.6-4.2 4.9v9c0 3.3 1.5 4.9 4.2 4.9 2.7 0 4.2-1.6 4.2-4.9zm11.5 4.6h2.9v-16.5l-2.9-0.6v-2.8l10.3-2.1v4.7h0.3c0.9-2.5 3.1-4.7 7.2-4.7 6.1 0 8.3 3.1 8.3 9.1v12.9h2.8v3.2h-13v-3.2h2.6v-12.6c0-3.2-1-4.5-3.7-4.5-2.1 0-4.3 1.1-4.3 3.6v13.5h2.6v3.2h-13.1zm31.5 0h2.8v-27.5l-2.8-0.6v-2.8l10.4-2v23.6h0.3l2.7-3.2 5.7-5.7h-2.9v-3.2h10.9v3.2h-3.3l-5.4 5.1 8 13.1h2.2v3.2h-12.7v-3.2h1.9l-4.5-8.6-2.9 3.1v5.5h2.6v3.2h-13zm29.7-9.1c0-8.1 4.8-12.9 12-12.9 7.2 0 11.7 4.4 11.7 11.4v1.6h-15.6v2c0 4 2.4 6.1 6 6.1 3.4 0 5.5-1.8 6.3-3.9l2.8 1.6c-1.1 3.1-4.3 7-10.8 7-7.9 0-12.4-5.5-12.4-12.9zm8.1-2.9h7.8v-0.7c0-4.5-1.5-6-3.8-6-2.4 0-4 1.5-4 6zm16.9 20.4c0-2.3 1.4-3.6 3.8-3.6 2.3 0 3.6 1.7 3.6 3.6 0 0.7-0.2 1.5-0.5 2l0.1 0.3c0.1 0 0.2 0 0.4 0 1.7 0 3.1-1.9 4.3-5.2l0.5-1.2-9.5-22.5h-2.3v-3.2h13.1v3.2h-2.6l5 13.9h0.3l5-13.9h-2.6v-3.2h8.8v3.2h-2.2l-10.1 23.9c-1.5 3.4-3.6 7.5-8.9 7.5-3.9 0-6.2-2.2-6.2-4.8zm34.4-7.7h-0.2v2.6h-4.8v-7.4h4.8v0.8c0 2.4 1.5 3.6 4.9 3.6 3.1 0 4.3-0.9 4.3-2.8 0-1.5-0.9-2.2-3.3-2.8l-2.2-0.6c-5.6-1.4-8.2-3.9-8.2-8.2 0-5 3.7-7.9 9.1-7.9 3.4 0 5.2 1.6 5.7 3.1h0.1v-2.5h4.9v7.3h-4.9v-0.7c0-2.4-1.4-3.6-4.8-3.6-2.3 0-3.4 0.9-3.4 2.5 0 1.6 0.7 2.4 3.4 3.1l2 0.5c5.4 1.4 8.2 3.3 8.2 8.1 0 5.3-3.9 8-9.8 8-3.6 0-5.4-1.5-5.8-3.1z"/>
</svg>